/* XPM */
static char *_ba67356798f45dcc31ccd21bfbaf3a9ynLXASEMCIJ5Ajb2[] = {
/* columns rows colors chars-per-pixel */
"64 64 245 2 ",
"   c #343417",
".  c #2A3B2D",
"X  c #353A26",
"o  c #2C3D34",
"O  c #2A3A38",
"+  c #333D34",
"@  c #333D3B",
"#  c #3A3D38",
"$  c #4C3C32",
"%  c #5B3A19",
"&  c #1E4C1B",
"*  c #1D5227",
"=  c #2B442E",
"-  c #2B4B2C",
";  c #284928",
":  c #33432E",
">  c #364929",
",  c #295526",
"<  c #38552A",
"1  c #2C4334",
"2  c #2C4B33",
"3  c #2D433A",
"4  c #274637",
"5  c #334433",
"6  c #344B33",
"7  c #3A4A35",
"8  c #34443B",
"9  c #3B433C",
"0  c #344B3B",
"q  c #3B4B3C",
"w  c #3B4434",
"e  c #2D5335",
"r  c #355334",
"t  c #35533C",
"y  c #3C543C",
"u  c #3A5A39",
"i  c #396339",
"p  c #2A652F",
"a  c #204A1A",
"s  c #42443D",
"d  c #434C3D",
"f  c #44543C",
"g  c #435B3D",
"h  c #475A39",
"j  c #50532C",
"k  c #486539",
"l  c #53693D",
"z  c #4C6E39",
"x  c #6F5426",
"c  c #383F42",
"v  c #2E4540",
"b  c #3C4442",
"n  c #3D4C43",
"m  c #374844",
"M  c #3D5243",
"N  c #3D5C44",
"B  c #395747",
"V  c #2F5941",
"C  c #3B6547",
"Z  c #3E704B",
"A  c #414543",
"S  c #434C44",
"D  c #444C4A",
"F  c #4A4D4C",
"G  c #464946",
"H  c #435344",
"J  c #4A5444",
"K  c #445C45",
"L  c #4C5C44",
"P  c #44534B",
"I  c #4A544D",
"U  c #455B4B",
"Y  c #4B5B4B",
"T  c #525A4C",
"R  c #464D51",
"E  c #4C5552",
"W  c #4D5A53",
"Q  c #475954",
"!  c #515554",
"~  c #535C55",
"^  c #555C5A",
"/  c #5A5E5D",
"(  c #555756",
")  c #514C53",
"_  c #446443",
"`  c #4A6444",
"'  c #4B644C",
"]  c #4B6B4D",
"[  c #466749",
"{  c #536B44",
"}  c #52634C",
"|  c #546C4B",
" . c #576949",
".. c #48744A",
"X. c #557243",
"o. c #5C734B",
"O. c #597848",
"+. c #4C6253",
"@. c #4A6A52",
"#. c #476755",
"$. c #536354",
"%. c #5A6454",
"&. c #536C53",
"*. c #5B6B54",
"=. c #54635B",
"-. c #5B635D",
";. c #5C6B5C",
":. c #546B5C",
">. c #4B7156",
",. c #547255",
"<. c #5C745C",
"1. c #5D795C",
"2. c #597656",
"3. c #61794C",
"4. c #626C5C",
"5. c #636A5A",
"6. c #637B53",
"7. c #64735C",
"8. c #637D5A",
"9. c #677758",
"0. c #717251",
"q. c #5A5E64",
"w. c #655E64",
"e. c #745A67",
"r. c #566362",
"t. c #5C6462",
"y. c #5C6A63",
"u. c #596A66",
"i. c #5C7863",
"p. c #626464",
"a. c #636B64",
"s. c #6B6C65",
"d. c #64646B",
"f. c #6A646C",
"g. c #646B6B",
"h. c #6C6B6C",
"j. c #6A6466",
"k. c #736569",
"l. c #657365",
"z. c #6A7363",
"x. c #637B62",
"c. c #6B7C63",
"v. c #65726A",
"b. c #6C746D",
"n. c #6D7C6C",
"m. c #657A6C",
"M. c #72736D",
"N. c #737C6D",
"B. c #747B68",
"V. c #6C6D72",
"C. c #6A6673",
"Z. c #6D7472",
"A. c #6C7974",
"S. c #737473",
"D. c #747B74",
"F. c #7B7B75",
"G. c #75767A",
"H. c #757B79",
"J. c #7C7D7B",
"K. c #7A7679",
"L. c #635A5D",
"P. c #966537",
"I. c #827D7C",
"U. c #817E77",
"Y. c #84744B",
"T. c #5D825A",
"R. c #53834D",
"E. c #65834E",
"W. c #648153",
"Q. c #6A855A",
"!. c #738A5D",
"~. c #638263",
"^. c #6C8364",
"/. c #6A8669",
"(. c #728463",
"). c #73826D",
"_. c #78886C",
"`. c #77926B",
"'. c #6D8576",
"]. c #748373",
"[. c #7B8475",
"{. c #7C8A75",
"}. c #74837B",
"|. c #7D837C",
" X c #7D8C7C",
".X c #748B77",
"XX c #7D937B",
"oX c #799377",
"OX c #EBA63D",
"+X c #CD883B",
"@X c #AF8346",
"#X c #82837D",
"$X c #828B7D",
"%X c #848877",
"&X c #83957A",
"*X c #CB8D46",
"=X c #CEAA5F",
"-X c #F7B54F",
";X c #E5B76A",
":X c #FDC352",
">X c #F4C56C",
",X c #7D7D81",
"<X c #797681",
"1X c #697080",
"2X c #827E82",
"3X c #887F86",
"4X c #7D8382",
"5X c #7D8A82",
"6X c #7B8B88",
"7X c #7C9083",
"8X c #848483",
"9X c #898584",
"0X c #848A84",
"qX c #8A8B85",
"wX c #868689",
"eX c #89868A",
"rX c #858B8A",
"tX c #8B8B8B",
"yX c #908C8C",
"uX c #839284",
"iX c #899285",
"pX c #85928A",
"aX c #8B928C",
"sX c #8A9A8A",
"dX c #91958C",
"fX c #8A8B92",
"gX c #8E9492",
"hX c #8F9B92",
"jX c #929592",
"kX c #939B93",
"lX c #9A9D9A",
"zX c #969B99",
"xX c #96A29B",
"cX c #9CA29B",
"vX c #99A596",
"bX c #8EA387",
"nX c #A1A59C",
"mX c #9CA4A2",
"MX c #9DA9A3",
"NX c #A2A4A3",
"BX c #A2ACA4",
"VX c #A8A9AA",
"CX c #A8B4A9",
"ZX c #AAB2B1",
"AX c #A09C9D",
/* pixels */
"4 o + X     + o 3 o n + q q 0 1 = = - ; < - 0 b S 9 D b n 0 8 3 3 n 8 8 n n n b b n m q q M 5 6 > > a & , ; t - - > > ; , * t 4 ",
"3 :   j Y.0.j X = n D.J.D.D.5X+.0 i.1.~.| ` .X}.gXmXlXzXcXxXxXB A.hXmXxXzXzXmXmXmXxXzXxXxXxXn.7 (.3.k i O.[ 1.2 ` 2.` _ k ; i.B ",
"=   @X;X>X>X=Xx   n k.k.f.d.8Xr.P m.x.` L x.l.D.fXfX8X9XtX0XmXn hXkXrXrXtXrXrXrX8X8XaXaX0XcX$Xd (.l k X.Q.(.' 6 } | ] ~., u ' q ",
"= j ;X:X-X:X>X=X> S k.e.C.t.G./ D A.$.L *.7.N.|.,X3X9X9X8X4XrXn D.|.J.8XtXwX8XwXtX8X8XJ.|.xX|.d 5.{ Q.| _.%X7.5 ]._./.[ u ^.7.+ ",
"X Y.>X-X:X-X-X;Xj 9 k.k.f.Z.4X-.8 U } c.^.<.$X0XtX9X#X9XqXqXD.S M.tXyX8X8XwXtXtXwXtXwX0XqXjXM.G N.$X{.).N.N.b.A F.|.[ t ]. X|.E ",
"X j *X-XOXOX-X@X$ 9 e.k.Z.}.b.P n +.M K | | $X|.|.K.s.#XqX[.;.9 -.K.|.|.wXwX8XJ.J.wX8X8X|.D.T d [.[.{.[.b.=.I A h.8X@.i.].0X}.S ",
"3 X P.*X+X+X@Xx X m R A W $.K y . 0 ' = _ ~.P r.^ t.( ! ! ~ ^ b E / ~ ~ ^ E ^ t./ ^ ! ! ~ =.S q U +.2.&.0 :.. o W P C ..,.' ' 3 ",
"4 5 % % P.P.%   . 3 v M y r < r 0 0 6 ; [ ~.0 m 8 @ E ( W I W E E ~ I I ~ ! F A b D E E I W I W U t ,.r K U U U I Q Z * i.K t 2 ",
"O 9 s $ $ $ $ J Y 6 ` W.O.!.E.X.` | O.k u ,.2..X8 =.hXvXMXBXcXMXmXNXmXNXNXcXmXJ.E ZXmXmXBXBXCXCXoX@.8._.nXvXvXvXBXsXZ * - ^.XXf ",
"b r.g.C.C.C.h.D.iXh h O.l O.3.l { 8.`.z k X./.' P y.0X#X0XrX0X0X8XrXrX8X8XrXlXrXG cXrX0X0XjXBX5X0 N oX&X).$X%X$XA.U ....- c.c.7 ",
"o ;.a.d.C.C.s.a.|.W K x.).7.l o.c.c.`.{ k bX^.;.n g.gX9XwXwXwXwX8XwXwXwXwXwXtXD.G VXtX8X9X9XtXb.i..X,._.].$X$X0XE U 1.Z e /.<.5 ",
"1 y.a.p.C.C.a.%.}.I $.[.F.M.7.7.[.{.(.h k Q.&XuXP g.tXeXwXwXtXtXtXtX9X8XtXtXtXG.G lXtX8XtX8X8X0X7Xm.' &.<..X$X|.=.}.oX@.] ~..Xy ",
"+ a.g.V.1XC.v.a.J.F %.N.D.J.J.N.[.B.*._.Q.k XX.XJ -.4XwX9X9XtXwXeXtXtX9XtXtXwXG.S H.wXrXtXtXtXrX0X$X).g 8./.[.qXuX X0X).' u /.` ",
"9 ~ =.r.u.q.r.=.E # J 5.M.b.a.b.z.7.7.(.^.oXx.$.8 W S.J.#XJ.|.8XJ.J.8XJ.8XJ.Z.-.A g.4XJ.|.4XH.|.|.[.].u ] | 0XK.|.].#Xs.- [ /.q ",
"= 6 9 9 b b n 0 n . f L J H K P I n y r ,.' y +.O n E I I I ! W ! E E D E W E D @ E E D E E E ^ P B U 2 N y D ^ Q B E ^ V C +.8 ",
"; e L h d H K N K ' ` 7 { ` 2 t 8 W ' K K ,.@.K u.u.y.=.a.y.=.n E -.g.t.y.y.y.y.g.y.r.a.y.^ E 9 r.:.M y.i.+.W b Q u.r.B B C :.0 ",
", X.O.3.l X.O.Q.W.W.l X.X.Q.Q.r $.pX].Y m.vXx.n.mXNXcXnXNXmXVXD 0XnXVXNXNXNXNXNXVXNXAXNXBXBXb.E xX0X=.MXcXxXrXn pXMX7X#.[ 0 7X+.",
"a X.z k k l k X.h < k Q.6. .6.` Y 0X$.J uXuXN.4.#X#X#X9XwXtXlXE $XqX9X2X8X8X2XI.2X3X9X#X#XBX|.I aXv.E 4X#XdXhXP cX|.#.C .Xi.0 2 ",
"- _ | {  .5.7.{ *.*.c._.%X5.z.T I 0XI Y iX]. XB.$X$X$X#X8XqXaXJ [.$X|.5XtXrXeXtXwX8X9X8X|.kXA.U pXD.y.a.#XqXpXP kXuXN >.pX7X:.0 ",
"- K ' } z.4.*.%.).].%XF.[.M.F.! P 0Xv.=.n. X$X0X#X$XyX9X#XqX|.s D.$X X XrX8XwXwX9X0X#X8XtXrX=.W pX0X}.a.9X8XA.q |.0XN #..X}.uXM ",
"= K L *.z.5.T %.n.D.%X#X#XF.S.! P D.H.y.$.$X4XwX8X9XeXeX8XwXD.S K.qX$X|.0XwXeX8X8XqX#X8XtXtX%.W 0X4X0X|.9X9X}.n b.|.m.#.m.}. XM ",
"= N ' 4.%.4.4.%.n.N.F.[.U.U.h.G J ;.Z.a.a.0XtXwXtXJ.<XeXtX4Xg.A s.#X0X0XrXtXyXtXK.J.tXtX2XS.W S |.4X0XrXqX8Xv.n -.D.pXu.Q [. XM ",
"- &.' } *.7.*.7.n.n.z.z.M.N.s.Y d Y -.y.a.D.,XG.G.V.d.G.,XS.a.S / S.F.H.D.S.G.G.f.C.,X,XV.^ D R h.J.D.D.J.S.=.S p.-.v.y.~ b.].P ",
"- y 6 : : 7 7 5 f d S s s # 9 w . 9 S S 9 S c A A E G S q q H : q H S S H S d S F ) F 9 I n . 9 A A b A s G I + 9 s n o S S 8 1 ",
"1 $.;.%.-.4.b.D.y.. I S.b.D.H.D.J.J.b.p.M.|.D.[.l.5 f |  .o.< h { | h f u k { ,.J w 4.J r 2.8.).D.D.D.D.F.F.H.H.J.M.D.a.9 -.n.n ",
"q v.D.S.K.K.8XgXgX( S.lXzXjXgXkXgXjXdX9XdXjXdXnXvX: | | o.X.E.l !.o.Q.{ o.(.O.8.g L &XXX] ` `.bXkXlXlXlXlXlXlXlXzXNXkX0XI D.kXW ",
"@ t.s.j.j.w.p.Z.ZXt.d.8XG.G.H.H.H.G.K.F.K.K.F.iXhXq K 8.Q.6.k O.| 1.1.8.`.oX_.&.6 K /.XX/.y _ oX|.#X|.|.#X4X4X|.J.wX#X8XA Z.pXD ",
"c p.h.j.k.f.f.V.fX! p.2XK.9XwXJ.8XF.F.F.J.F.F.0X|.n ).oXXXoX8. .l..X| /./.uX.X{.K U .X XuX X1.x.0XwXrXrXrXrXrXrX9XJ.9XtXI |.5XI ",
"@ -.j.p.k.h.f.d.S.I j.9XU.F.J.S.J.F.J.J.I.J.K.|.A.b 6X5X5X XuXl.|.0X&./.&X&X{.iX%.&.pX5X|.}.' &.0XwXwX8X0X0X8X8XtXwXtXS.b H.rXI ",
"b y.Z.h.h.s.h.a.Z.F ( F.F.F.F.#Xb.b.J.J.F.J.K.H.r.D A.6XtXrXJ.aXrX|.} g c.7.].[.H $.A.5X|.$.' XXrXtXtXrXrXrXrXwX8XwXG.p.b a.rXD ",
"O B W ! E W ^ W u.I I s.M.s.s.s.p.p.V.h.s.h.h.h.S S g.g.Z.M.M.b.b.v.=.Y f x.' } H Q v.}.:.y <.x.b.S.S.Z.Z.Z.Z.S.S.S.j.p.F W g.b ",
"1 1 1 5 = o 8 1 0 5 q d w : w d S b b A s A A 9 + + A b G A s G n n q H u r ,._ 5 0 n U K = y q 9 s A b b n S s d 9 d d 5 q q o ",
"; { T.Q.E.X.X.h { 6.o.3.O.O.{ > f |.|.tX9X9X0X0X0XaX4X4XwXrX0XS g.4XiX&X] /.1.N g u ~.i.a.vX:.Q pXrX8XrXiX Xc.> h l h h 6.6.6.< ",
"> Q...z k E.O.k X.k l E.O.E.!.h 5.kXtXyXtXtXaXaXiXrXaXjXgXgXBXE zXlXiXbX1.2./.~.XX_ ..,.s.VX6X:.ZXdXaXjXaXvXvXh 9.Q.Q.!.`.o.o.< ",
"5 &.M [ }  .g  .| 9.c._.^.{ 6.l } 0X2X2XK.I.F.F.F.F.F.F.S.J.cXq ,XwX9X#X).[ x.XX{..X,.y %.nX}.Q jXJ.9X9XF.8XkXw %.N.{. X Xn.D.S ",
"5 +.=.y.l.%.L *.7.$XF.%X$XL h h T #X2X3X2XI.I.F.F.N.s.I.#XI.[.S G.tX2X#XXX1.u x.$X].' ] B.vX}.I tX8X9X8XtXtXtX9 / F.|.|.|.4XrXD ",
". ' ;.7.5.5.%.*.l.#X#X#X#X%.*.H J B.J.I.I.#X#X[.F.8XM.L.h.eXD.S -.J.qXqX[.` e i.qX[.C ..&XdXl.P 0XtXwX8XtX8XF.A S.8X#X$X0X8X8XS ",
"r K ;.;.5.4.l.4.$.S.9X2X|.A.n.L q 4.S.F.J.J.[.[.D.b.K.G.8XJ.a.s -.a.J.D.{.' T.] 4.iX1.C 8.c.U U 0X0XrXrXH.s.p.A h.|.|.|.|.#X|.I ",
"; r ' n I I +.H I -.d.d.V.v.:.y 3 P r.t.d.u.y.;.y.^ g.d.d.p.^ 9 W t.p.a.#.N @.t +.:.>.] _ ,.U B A.a.a.b.t.t.E @ ^ g.g.p.5.v.;.q ",
"; 2 2 0 1 8 o q q 9 b b 9 8 6 r = 0 q 9 b 9 0 0 5 n 9 G b A n 8 9 9 S q V e 0 U M 4 2 ; r [ 6 5 6 6 q q 9 D b b b 9 9 9 n S 8 + ",
"3 i.] @.` x.].].~ 5 L 8.{ k h { W.W.o.` h h { 8.g y N.kXgXkXaXkXvXhXsXbX>./.vX;.= t _ k _ k ,.~.o.6.o.7.7.iXsXaXdXkXiX[.q b.xXW ",
"3 Q ' r 1.x.;.].$XJ | O.k W.3.k E.O.3.6.3.!.l o.o.h %X0XtXqX0X0X0XnX*.8.../.uXsX,.r T.T.k ,.^.{ 6.!.(._.).&X$XqX0X0XdX|.S aXhXS ",
"@ Q y.M B i.;.a.8XY K x.{.{.5.o.{  .%X_.%X%X9. .L w #X#X#XI.#X#X9XqX.X,.1.'.'.pXT g ] N x.uX).)._.%X%X$X#X#X8X8X8X2X8XwXF G.tXG ",
"b u.y.:.#.:.$.a.F.I H ].$X[.%X4.c._.[.[.[.$XN.L } d #XtX9X9X#X8X2XJ..X] ' ].0X5X~ q ] N :. X X$X$X|.#X#XwX8XeXeXeX2XeXs.# Z.rXD ",
"5 $.;.<.,.[ <.*.a.S n n.$XF.tX|.c._.[.%X#X$X[.;.l.s h.K.3XeX8X8XtXK.uXK u /.[.0X$.5 c.^.y $.iXF.8X8XwX2XeXwXeX8XeX8XJ.5.s b.iXS ",
"5 U *.*.r ] x.<.q 0 M W b.8X4XD.<.7.0X|.0X|.[.{.;.9 p.f.2X2X8X8XJ.8X[.<.] N ].z.H Y )..X2.&.|.wX8X8XtX4X8X,X8X8XJ.#X5.s.S $.].H ",
". M q n 2 t - ,.&.. 0 B F ! -.=.+.U Q ~ ^ -.+.:.U 8 ~ ^ p./ -.=.-.r.=.:.V V $.%.m n +.&.>.[ r.q.^ ^ / ^ / / t.t.-.p.-.I o W =.m ",
"- t q 0 N V t r 2.[ M 3 9 9 y 0 8 P E I ( D W H P P I ! E I S 9 M q K 2 C e r y M 0 y y u t n b E I I E ! I S 9 H q q H q q P 8 ",
"; Q.^.: _ /..X'.U @.~.N %.c.^.' T kXcXNXcXNXnXcXcXNXlXNXNXlXkXH Q.O.k i R.p ..W.Q.Q.o.k r 2._ &.CXnXcXcXnXsX{.h (.9.(.(.)._.).d ",
"; 2.9.f y <.n.v.u.U e @.c.h o.{ l.aX8XwX8X9X9XyX9XtX8X|.4XaXlXJ X.O.k z , p z k { o.O.O.` ` y <.cX8X#X|.|.sXvXf 6.o.(.&X_._.%Xf ",
"1 i.N.b.+.u.Z.b.H.l.i.K %.B. .5 F h.V.2XeXeX2X9XeX2X9XtX9X|.#X9 f Q.2._ e ~.XX{.^.K ; ,.XXc.7 I rXJ.tXrXF.iXvX7 } ).$X{.{.iXqXS ",
"v u.b.g.P D p.h.a.b.W ;.s.s.N.H F h.d.d.V.,X8XyX9XeX9XJ.9X0X#XS %..X' t N m.%X|.n.&.2 ] uXD.H P rXwX8XwXrXrX0X9 5.$X|.|.0X|.J.F ",
"v u.Z.Z.g.^ h.S.S.S.b.b.h.S.g.I A p.g.p.p.h.h.h.J.J.S.p.S.b.5.9 b.5X=.'.v.m.|.0Xv.'.>.C '.5X:.S 8XtX,X8XeXK.M.s K.8X#X8X8XJ.wX! ",
"o W a.a.A.a.s.j.s.a.y.v.s.a.r.D 9 Y =.-.-.-.-.-.-.^ E W g./ D 9 =.5XA.6X}.r.A.|.|..X#.e <.).@.q v.J.8X4XF.V.p.A s.|.|.J.|.4X4XF ",
"4 n S s n S G G G J M M S H U 1 = 5 q q n q 9 n n n b m m R c O b ^ W n :.B Q Y J L ] C ] ] - = U U Y Y Y ~ D o S I I W =.P P 3 ",
"0 H ~ =.Y ~ ~ ~ d + 0 0 7 7 y u g g u - : 6 y Y n m R r.^ r.q.u.t.~ ^ =.B #.#.U q 6 r e C 2.i u u K K Y $.=.W -.=.~ =.H 8 M :.m ",
"8 }.aXrXaX8XtXNX0XH ` | h { O.Q.Q.W.X.{ o.{ { ^.x.y  XvXcXxXxXxXlXNXZXBXu..XCXvX%.6 T...e ] /.2._.7.z.$XxXcXlXNXlXNXzX0X9 5XBXW ",
"9 -.p.q.q.p.V.G.zXY Y *.` k k O.3.X.{ 6.`.Q. .*.*.7 ].[.[.[.[.|.|.0XdX0X=.m.pXvXL } ~.C _ u g c.c.7.4.N.#X#XI.I.I.I.9XNXI J.0XS ",
"b / f.f.f.f.f.w.jXI Y ).(.6.X.o.7.{.$X[.[.$X[.D.Y S 8X|.#X8XJ.#XJ.|.8X8Xb.D.#XnX4.] ] i <.x.4.{.{.{.|.#XwXwXwX8X8X8X,XlXA D.4XD ",
"# / s.f.f.f.f.w.8XF I 4.z.c.7.9.0XrX8X4X|.8X0X8X/ S 8X8X8X9X8XwX8X8XJ.8X8X8XU.dX$.M @.>.).$X[.[.[.|.|.4X8X8X8X2X2X8XwX,Xb A.fXR ",
"9 -.a.p.f.d.d.V.q.A R ^ r.a.l.b.J.,X,XwXwXrX6X4Xg.b G.wX8XwXwX8XwXrX4XwXwXwX3XI.S U >.#.A.0X#X#X0X8XwXwXwXwXeXeXeX2XwXS.G p.4XD ",
"+ ! ~ ~ t./ ( ^ D c D r.g.g.p.g.t.Z.,XH.A.A.H.A.=.@ y.H.H.F.J.S.S.H.D.H.S.S.K.S.P U N V =.H.G.F.D.D.G.G.G.G.G.G.J.D.S.p.b ^ v.D ",
"v n n n D n S P P 8 8 D E W E I I S S I P H H Q P 8 n I I D W I P I I E P P E I 9 m B V m P E R I I I E P E E I S U Y H 8 P +.8 ",
"3 v v m 8 1 0 8 1 1 8 8 8 9 @ # + 5 5 = 5 5 1 1 1 8 8 O @ o 9 + 5 o @ + 8 3 O 8 9 8 3 4 3 8 @ b + 8 8 8 3 8 8 1 8 . 1 1 1 1 m 1 "
};
