/* XPM */
static char *def01c3fe0034f09b8d776e306fce8c2G5GlOD1PO2jNI5Dd[] = {
/* columns rows colors chars-per-pixel */
"64 64 256 2 ",
"   c #103F5D",
".  c #13425B",
"X  c #34555E",
"o  c #1C4B6C",
"O  c #174568",
"+  c #0D4B76",
"@  c #1C4C74",
"#  c #134E7D",
"$  c #1B4E7A",
"%  c #144A74",
"&  c #13527C",
"*  c #195376",
"=  c #115175",
"-  c #24496B",
";  c #27546D",
":  c #375767",
">  c #244C72",
",  c #274D77",
"<  c #2B5672",
"1  c #22537C",
"2  c #275877",
"3  c #375771",
"4  c #2B627D",
"5  c #396578",
"6  c #134F82",
"7  c #155382",
"8  c #1A5482",
"9  c #1A5A88",
"0  c #195E92",
"q  c #0B4E82",
"w  c #255B87",
"e  c #315C83",
"r  c #1C6592",
"t  c #24628C",
"y  c #2B6589",
"u  c #386989",
"i  c #2A6B94",
"p  c #2C6D9B",
"a  c #256696",
"s  c #336B97",
"d  c #3C7494",
"f  c #34739C",
"g  c #3D7A9C",
"h  c #387598",
"j  c #347292",
"k  c #296CA2",
"l  c #326FA1",
"z  c #2C72A3",
"x  c #3473A4",
"c  c #3E7BA2",
"v  c #3A7BAA",
"b  c #3677A8",
"n  c #3D7CB2",
"m  c #48798B",
"M  c #567B8B",
"N  c #437D9C",
"B  c #4A7E9E",
"V  c #457995",
"C  c #497392",
"Z  c #437CA2",
"A  c #457AA6",
"S  c #4C7FA8",
"D  c #3D839E",
"F  c #3D84B8",
"G  c #3B80A2",
"H  c #43829C",
"J  c #4B829C",
"K  c #4A8397",
"L  c #55839B",
"P  c #588699",
"I  c #52808F",
"U  c #63899C",
"Y  c #4583A4",
"T  c #4B84A3",
"R  c #4A8AA3",
"E  c #4583AB",
"W  c #4B85AC",
"Q  c #4C8AAC",
"!  c #458AA6",
"~  c #528AA4",
"^  c #538CAC",
"/  c #5588A7",
"(  c #4B90AA",
")  c #5B94AD",
"_  c #5693AC",
"`  c #4484B4",
"'  c #4C8CB4",
"]  c #4987B5",
"[  c #538CB2",
"{  c #548DB9",
"}  c #4C92B8",
"|  c #5593B3",
" . c #5B94B3",
".. c #5C99B5",
"X. c #5493BB",
"o. c #5B95BA",
"O. c #5D9BBC",
"+. c #5698BD",
"@. c #638CA4",
"#. c #6694AA",
"$. c #679AB7",
"%. c #749BB1",
"&. c #66A3BC",
"*. c #75A7BA",
"=. c #7DB1BC",
"-. c #5BA1BA",
";. c #488BC3",
":. c #4D95C7",
">. c #5B9CC2",
",. c #5799C8",
"<. c #589DD5",
"1. c #619DC5",
"2. c #5DA2C8",
"3. c #5DA2D4",
"4. c #5CA6D9",
"5. c #4EA0D2",
"6. c #64A3C3",
"7. c #6CA5C4",
"8. c #6CAAC4",
"9. c #64A4CB",
"0. c #6BA5CB",
"q. c #65AACC",
"w. c #6BABCC",
"e. c #65AAC7",
"r. c #72ACCB",
"t. c #76AAC5",
"y. c #79B3CB",
"u. c #63A5D3",
"i. c #65ABD4",
"p. c #6BACD4",
"a. c #64ACDB",
"s. c #64A7DA",
"d. c #73AED3",
"f. c #6CB2D4",
"g. c #66B2DC",
"h. c #6CB4DC",
"j. c #6AB5D9",
"k. c #74B3D5",
"l. c #7BBAD6",
"z. c #73B5DB",
"x. c #7BBBDC",
"c. c #78B7D6",
"v. c #6CB0CD",
"b. c #5EAAE1",
"n. c #63ABE2",
"m. c #69AEE3",
"M. c #65B4E2",
"N. c #6BB4E4",
"B. c #6CBAE4",
"V. c #6CBAEB",
"C. c #6CB6E9",
"Z. c #72B6E4",
"A. c #74BBE4",
"S. c #7CBDE3",
"D. c #73BBEC",
"F. c #79BAE9",
"G. c #76BCF1",
"H. c #70AFE2",
"J. c #579EE0",
"K. c #7CC1DB",
"L. c #7CC1E4",
"P. c #7CC3EC",
"I. c #76C4EB",
"U. c #7BC6F6",
"Y. c #6FC0EF",
"T. c #88B5C9",
"R. c #83BBD3",
"E. c #83BCDA",
"W. c #8BBDD8",
"Q. c #95BED4",
"!. c #8AB1C5",
"~. c #82BCE2",
"^. c #87C3DD",
"/. c #98C4D8",
"(. c #8FC0CF",
"). c #A4CCDE",
"_. c #A7D2DD",
"`. c #84C3E3",
"'. c #8BCAE5",
"]. c #8BCBEC",
"[. c #86C6E8",
"{. c #93CBE4",
"}. c #92CDEB",
"|. c #99CCE6",
" X c #8DD3EC",
".X c #89D2EB",
"XX c #9CD3E5",
"oX c #94D3EC",
"OX c #9BD4EB",
"+X c #98D7EA",
"@X c #87CBF5",
"#X c #93C9F1",
"$X c #8CD4FE",
"%X c #8ED9FE",
"&X c #89D2F6",
"*X c #95D4F4",
"=X c #9AD5F3",
"-X c #9BDBF4",
";X c #93D6FB",
":X c #94DAFE",
">X c #9CDCFC",
",X c #98D8F6",
"<X c #A1CDE4",
"1X c #A3D4E4",
"2X c #ABD5E5",
"3X c #A4D5EB",
"4X c #AAD5EB",
"5X c #A4DAED",
"6X c #ACDBEC",
"7X c #ADDAE4",
"8X c #B2DAEB",
"9X c #A2DCF4",
"0X c #ACDCF3",
"qX c #A3DDFB",
"wX c #A6D8F7",
"eX c #B3DDF4",
"rX c #9CE1FA",
"tX c #B5E4ED",
"yX c #BBE5EC",
"uX c #BCEAED",
"iX c #B9E4E8",
"pX c #ABE2F5",
"aX c #A4E3FD",
"sX c #ABE4FC",
"dX c #ADEBFE",
"fX c #A6E4F8",
"gX c #B4E5F4",
"hX c #BBE5F4",
"jX c #B4E9F5",
"kX c #BCEBF4",
"lX c #B4E5FB",
"zX c #B3EBFE",
"xX c #BBECFD",
"cX c #BAE6FC",
"vX c #B4F2FF",
"bX c #BCF2FE",
"nX c #BDFAFF",
"mX c #BEF0F7",
"MX c #ADE4F2",
"NX c #C3EAEE",
"BX c #C2E5EC",
"VX c #C3ECF4",
"CX c #C2EDFB",
"ZX c #CBEDFB",
"AX c #C7EAF3",
"SX c #C4F3FE",
"DX c #CBF4FE",
"FX c #C3FAFF",
"GX c #CCFBFF",
"HX c #C6F2F5",
"JX c #D3F5FE",
"KX c #D3FDFF",
"LX c #DBFEFF",
"PX c #D8F6FB",
"IX c #C6F0EE",
"UX c #E3FFFF",
/* pixels */
"> @ * O O O > , > o y * y 2 e 2 , 1 e < 5 ; : : : : : 3 3 3 3 - ; < : : X : : : : : : : : 3 ; - : X X 5 3 < ; < < ; < < < < < < ",
"o > @ u B B y o > u ].;X*X}.wXr.V #XSXxXcXjXxXVXVXDXDXVXJXZXDX@.Q.CXDXZXDXJXZXJXZXZXAXZXDXKX<X@.JXVXKXhXDXcXo $.<X3XlXCXDXCXCXC ",
"2   ~ y.*.*.W.T O w A.A.A.z.>Xx.| qX-X9XfXpX5X3XxXSXxXSXxXSXKX#.gXGXDXVXVXKXLXDXZXVXPXUXDXGX0X#.SXkXDXGXSXlX> 4 lX/.XXKX8XQ.4X- ",
"O u u L (.T.V d y w N.4.h.i.@Xx.| ,XoXfX-X{.5XdXzXzXzXzXxXbXFXL XXSXtXhXKXKXSXxXhXGXDXtXtXGX6X) xXxXxXbXzX0X2 O |.$.=.KX/.%.Q.. ",
"o C y.L CXjX) ^.y 8 D.N.g.h.&Xf.E z.c.`.'.+XvXvXbXbXzXxXzXzXlX/ /.FXbXGXKXbXxXxXxXbXbXbXxXGX3X/ FXmXbXbXbX3X2 o |.u T.SXT.P V . ",
"- u @.#.T.=.$./ e w a.a.U.:X.X' ` u.z.f.k.l.fXdXaXfXl.sXzXsX'.J 7.OXzXFXzXfXdXsXzXzXpXdXzXXX&.) xXjX6XzX0Xy.2 . ^ u $.wXV 2 C O ",
"- O L *.*.#.y.C O w A b ] ,.>.' a b :.,.2.>.2.9.u.p.9.>.6.O.6.N | v.6.&.6.6.>.p.9.9.6.6.&.7.| Z &.7.7.1.r.o.% % A e C eXC - , - ",
"> O O 2 u u 2 O O @ w v ' Q [ Q X.X.>.' ' +.' +.E x { o. ..._ )  .) ^ ) ) ..| Q E [ |  .) .. . ... . . .$.o.1 $ @ O V wXu o - > ",
"$ w a w w w w h S e O.vXFXFXGXFXFXFXGXFXzXGXGXKX$.$.DXGXGXKXKXKXKXUXPXKXLXKXDXlXL DXKXKXKXLXLXLXLXKXKXGXLXSX< o o o u ~.@ > @ @ ",
"7 1.F.a.Z.F.F.[.cXB y.dX|.0X|.XX1X1XbXbXbXgXjXDX*.T.DXgXhXVXuXVXBXJXAXNXVXHXGXxXP GXGXVXNXZXPXPXKXDXVXkXkX8X; o - 2 1 $.o @ * @ ",
"= 2.N.M.$X$XN.i.>XT _ fX=XOX=XwX|.0XbXgXbXbXxXGX*.=.SXSXSXkXhXDXVXVXuXHXDXSXCX6XL SXSXuXkXVXGXCXCXSXhXkXSX1X; ; < o - C > 2 O < ",
"= 2.M.M.Y.N.g.z.qXW O.dX}.=XwX}.wX0XpXvXzXvXgXFX#.y.SXbXgXxXDXSXkXkXSXDXbXjXxXlX/ xXbXjXmXSXSXxXjXkXxXjXxXKX*.. O o o > o > . O ",
"7 3.Y.V.V.N.N.a.#XZ Q -X*X-XaXOXsXpXzXbXzXxXzXzX$.t.lXxXSXDXGXkXxXFXGXnXbXbXzXXXJ XXzXbXbXbXzXxXDXtXkXFXGXKXbX/./.W.'.E.N ..OXd ",
"# X.g.a.4.4.g.i.X.s G L.oX'.`.'.^.^.OXwXfXsX9Xy./  .E.wXxXpX3XpXfXfXpX5X5XfX{.r.T l.9XpXpXfX9XsXpXMX6XMXFXpXXXpXzXzXaX`.^ 7.9XT ",
"1 i i t i p p i s % v ] E ' Q Q | W Y W | | ..| y ! O. .| | ..$.o......... .| o.Z Q  . ._ | O.O.|  ..._ R _ ..$.o.o.1.[ h Q O.y ",
"@ A X.Q Q Q E ' { 0.0.0.d.0.7.^ Z 1.w.d.8.8.&.*.t.7.8.7.8.r.7.T  .6.8.&.8.t.8.r.8.8.&.8.8.7.1.Y 0.r.7.8.8.y.) V | 7.7.y.r.r.7.y ",
"% #XqXdXaXaXvX-XzXKXKXKXDXSXKXy.$.FXbXFXKXKXKXLXLXLXJXLXLXLXUX#.6XKXKXLXKXKXLXKXKXLXKXKXKXLX|.#.FXGXKXGXKXKXGXP DXGXGXLXGXKXKX/ ",
"& >.S.L.f.&X].8.R.zXlX6X1X).xX/.#.zX|.0XgXiXKXPXBXNXVXAXPXAXJX@._.HXkX8XVXKXyXNXBXyXVXuXCXGX0X/ mXuXuXuXkXVXGXU CXHXNXuXuXtXCXM ",
"= i.Z.i.P.%Xi.c.oX9XOX3XXXOXzXy.~ 9XOX5XkXDXGXIXVXVXVXKXuXHXGXP /.HXhXVXGXGXVXVXyXHXGXkXxXSX3XP SXtXSXDXCXxXCXP lXSXkXkXHXhXDXP ",
"& 2.z.@X&Xj.i.@X*X*X=XqXOX-XaX&.^ 9X9X9XFXGXHXIXVXhXGXSXkXjXFXP /.CXCXKXDXhXZXhXDXKXDXxXxXSX/.#.SXkXSXDXxXcXlXB sXFXkXkXyXAXJXU ",
"& ,.A.I.M.B.U.f.P.:X,X,X:X,X XO.R =X}.sXKXbXjXtXxXFXbXjXbXjX+XJ 1XSXKXGXcXxXhXCXKXDXCXhXxXxXT.$.xXSXCXgXcXxXsX^ {.lXjXVXyXGXPXM ",
"7 :.a.M.V.Y.B.B.%X:X:X;X>X>X@X' Y S.S.S.aXvXzXnXnXbX'.vXdXvXc.H R.FXFXbXxXbXSXKXxX1XbXzXlX{.$.J 5XbXxXlXbXdX}.Y 8.'.dXbXFXDXGXM ",
"q F n.4.:.5.4.b.U.P.@X@X[.@X[.:.z :.Z.u.z.>X X-X>X[.z.].*X&XL.} -.,X.XoX,X XrXaX^.k.,X*X].v.' ! K. XoX,XrX.Xj.G q.L. X XrX+XoXN ",
"6 0 0 0 r r 0 r v Q E h Z g c f t a E ` c g N H W o.^ ! Y Y E g R R H R H R H H _ ( R D R Y j g R R H H ! ! ( h D ( D D ( Q R 4 ",
"@ $.0.0.p.0.x.E.t.C P T./.Q.T./.^.W.W.8.W.R././.W.L !.Q././././.Q././.Q././.Q./.%.@././.Q././.Q.Q.(././.Q.Q././.(.Q./.W.J $.W.u ",
"@ E.=X=X*X*X-XzXGX#.!.PXDXZXDXKXSXbXcXlXSXDXGXLXCXU VXLXLXLXLXLXUXUXJXJXUXLXLXUX!.!.JXJXPXPXLXLXUXLXPXLXPXPXLXUXUXPXPXGX@./.LXL ",
"+ >.S.i.f.[.q. XGX) y.lX/.1X6X1XXXXXXXOXXXXX1XbXSXm hXxXyXyXhXCXDXNXiXVXDXkXkXKX!.!.KXxXCXhXhXVXGXSXkXhXBXAXIXJXiXVXjXxX~ W.FXV ",
"& u.i.B.U.I.B.A.dX .&.=XXXdXpXXX+X+X-X-X+XXXXXvXpXV zXxXxXmXjXSXyXkXSXGXSXtXhXGXy.=.GXjXhXkXSXGXkXxXkXhXVXJXKXIXuXtXxXbX) }.nXH ",
"+ 3.A.U.U.M.B.i.;X+.6.zXzXfXOX+X+XoX-X,X-X-X+XfX}.J 9XbXxXxXzXzXCXDXGXDXCXhXkXSXt.*.SXxXxXSXDXSXhXxXkXCXGXLXKXNXDXCXxXwXT {.FXK ",
"7 ,.$XI.n.M.N.N.P.` +.sXsX*X,X>X].'.:X;X>X,X-X-Xc.g '.vXzXzXbXbXSXDXSXxXxXbXzXsX$.$.qXzXzXFXSXjXbXxXxXSXGXDXSXkXjXzX=Xl.Y y.zXK ",
"# ' ,.<.:.:.3.:.N.E ' S.~.~.`.z.k.f.F.A.F.z.S.S.X.p p.].'.'.'.`.oX}.'.'.'.].'.S.X.+.S.].].}.'.^.'.`.[.].].'.^.'. XL.F.Z.] 1.}.d ",
"% w 7 9 9 a 9 9 s s Z Z d d g N ! h c h g g g g j t Z d J T T ~ T N J J H H T ! N g Q Z ! H T ~ N J T Y Y Y R R D E E A c W B 4 ",
"O y.`.^.`.`.^.E.{.0XeX).8X2X).#.L /.0X<X4X6X<X6X4X3X4X3X4X8X6XU T.6X2X7X7X7X8X8X8X8X8X6X2XgXQ.@.8X_.8X8X8X4X/.L Q.4X3X8X8X4XeXM ",
"@ c.].'.L.rXoXfXbXlXhXhXAXPXUX!.#.KXlXxXhXhXKXSXhXgXcXxXxXcXLX#.hXKXHXKXKXKXJXJXJXZXJXLXPXLX8X%.UXPXJXJXPXPXJXU GXUXKXDXJXLXLXU ",
"& >.z.u.h.A.j.f.x.}.|.0XsX3XFX^.^ dX{.OXOXpXzXXXOX9X{.OXOXXXGXL ).VXyXuXHXIXyXhXxXkXDXHXyXJX).M HXiXVXGXSXhXDXP kXDXNXiXVXKXJXM ",
"7 u.Z.U.D.M.M.h.S.,XqXzXqX{.sX8.| ,XaX-XfXfX+X-X*X*Xx.*X>XoXaX~ /.SXSXkXuXmXhXmXhXSXDXyXtXKX4XP SXuXGXkXhXSXcXm gXkXyXHXHXVXZXM ",
"# 1.Z.U.N.a.g.h.h.aXzXqX=XqXaX&.Q [.oX>XfX=X=X-X-X-X].c.x.qX=XH 7.qXzXbXkXuXuXmXGXGXHXkXSXSXW.^ bXjXbXzXzXzXpXK XXxXxXGXFXkXSXI ",
"# ` H.s.N.C.D.h.@XdXqX].sXbXoX..Y c.`.-X-XqX-X*X,Xx.,X*X*X,XE.N 1.[.>XzXvXjXgXmXGXFXgXgXvXqX0.W bXvXdXvXaXl.r.g R.sXpXzXzXlXbXJ ",
"+ v ;.:.F ;.F ] } 9.d.k.k.c.r.| j ' d.k.w.k.w.z.z.9.S.z.k.k.0.Y u.p.p.k.v.c.c.^.c.l.y.c.E.x.o.E x.^.x.S.z.6.+.j 6.x.x.c.x.x.~.j ",
"# w 8 9 a 7 a 9 9 g N N N d N H g h ! N J d N N N W Z g g Y N g A Z Z H d H N g g g N V V J B N N d H N g Y g h g h g N Y g Z * ",
"o W.=X*X].;X>X,XE.u $.cXcXxXSXxXbXlXlX1XxXCXxXcXW.V {.xXcXxXxXxXxXCXxXSXxXCXxXcX$.t.KXhXAXAXZXZXCXZXZXCXCXCXCXSXxXSXcX0XL T.SXL ",
"o 7.[.k.`.>Xx.-XzXB t.DXeXgXeX6XcXSX1X0X3XxXSXcXSXV 3XsX0XlXeX6X6XKXZX7X8XJX8XKX!.!.LXZXAXNXJXLXLXLXJXAXVXHXZXVXKXDXDXSXU 6XLXM ",
"= 6.f.i.P.&Xi.f.aX| o.qXwXwX}.aX9X9X5XOXzXbXOX9X9XR =X'.-XdX9X9X5X1X1X1XkX6X4XeX%.!.LXkXVXVXVXVXVXuXNXVXVXuXkXSXSXxX0XcXK W.GXm ",
"& >.i.&X$XV.N.a.;X] E ,X*XqXaX-X=X+XoX+XnX9XOX9X'.H '.aX-X-XqX+X9X{.5XFXzXXXwX0X$.T.KX6XSXFXkXkXSXhXuXhXuXtXmXGXxXzXFX^.4 R.bXK ",
"% 9.;X@XN.N.N.N.Z.f E [.>XsXsX>X-XOXfXbXfXOX9X9X`.g c.*X=X=X-XOX+XpXnX+X+XfX=XqX1.7.zXbXGXSXxXSXbXbXbXjXxXFXFXzXbXzXzXR.4 R.bXK ",
"1 ~.aXz.u.N.a.N.i.a f 1.*XdX*X,X-X=XdXzX=XqX}.*Xd.Y k.k.*X,X=X-XoXqXfXy. X,X;X@XX.Q =XbXzXpXlXlXfXdXdXzXvXFXbXdXdXfXR.`.u $.zXK ",
"O Z E E ` b b F v 9 c E c ' 6.0.6.k.9.6.0.1.0.9.>.i X.9.9.9.0.9.9.p.2.q.2.6.q.9.c c 6.r.6.0.k.p.p.0.q.8.8.8.8.r.r.r.$.[ * T 7.y ",
"$ w s s f x b p a f i f j h ' c c A [ [ ^ ^ W [ ^ [ W { [ [ Q g E Y +.Q R ^ R Q T ^ ^ ~ ^ ^ Z Z Q Q ^ ^ ^ ^ J d B ^ B d u V d 2 ",
"@ wXqX,XaX>XaXaXdX>XaX>XaXaXdXk.W zXGXSXDXDXDXKXKXGXSXGXSXGXcXT W.SXGXSXDXKXGXSXDXGXSXGXKXGXT.#.KXDXSXSXDXDXlXL /.KXDXSXLXGXKXP ",
"1 [.~.x.*Xw.q.;X:Xz.p.z.k.9.>Xk.r.sXwX0X6X2XgXLXhX_.6X4X0X0XCX#.6XxX).2XSXSX8X7X_.8X2XgXhXKXeXU DX2X2X6X1XgXSXP SXDX2X2X2X2XKXP ",
"% O.].].z.f..X@Xj.j.A.i.A.L.S.X.Y c.c.oX{.dXnXpXXX9X5XOX9X9X-Xd R.5X5XzXbXMX1X6X6X6XSXlXXXbXW.m 6X1X3X3XgXzXzX5 xXzX6XXX0XxXxXm ",
"= 6.[.z.j.%X%Xh.g.N.N.Z.@XA.h.` x P.q.e.`.rXrX-X-X-X>X].>X,X>Xy l.9XzXzX9XOX5XOX9XxXsX|.|.sXR.j pXOXOXdXbX9XOXu OXOXOX5XzXzXOXV ",
"& >.A.i.I.&XV.g.D.a.C.U.G.N.D.F a N.Z.@XrXL.f.L.&X:XS.h.&X[.p.t c.aXaXqX-X9XqX9XbXbXqXwXaXqX0.j =X-XzXdX-X}.oX2 x.aX>XqX-X,XsXN ",
"7 E h.D.N.a.4.M.4.a.U.m.<.m.4.z k ;.s.P.P.u.i.p.2.u.,.,.,.i.{ 9 O.,X=X*X-X=X=XsXaX}.=X*X*X#X .j ].*X-X*X[.x.k.i ' ].].`.].].#Xj ",
"+ t f z z z p z b n z k z p b a 0 x p t p p i p v l x a l p a # f { Q Q [ [ W  .[ o.[ W W { W % s ^ [ W | [ h + i h x c E c f * ",
"8 x ` E ` } } ` p 9 i E } ] ` ` S ] W ] ] ' E ` v 9 x { W ] ] Q E W Z Q Y W W d y y S ^ W W W o.[ ^ Y Y Y Y E Q E E E f 8 t W w ",
"* S.zXaX;X:X;XdX:Xi z.vX>XaX>XdXdXqXaXaXaXaXaXvXaXi z.qXaXaXdXsXaXdXnXdXfXaXFXzX~ J bXKXbXFXnXzXzXnXnXaX>XdX>XrXvXaXrX*Xj 0.dXY ",
"# ] [.,.:.:.} h.dXQ q.&Xp.f.f.[.[.p.k.f.f.@X&Xf.[.i h.h.k.S.`.c.w.c.-X^.8.'.-XdX&.&.zXy.E.^.y.8.8.[.].z.w.q.f.[.L.x.q.dXg z.S.i ",
"7 u.3.:.:.<.N.:.%X+.f f.h.P.%XD.g.A.g.j.%X%XB.B.4.a B.B.I.I.B.f.h.A.j.p.$X:X9.>X>.>.rX0.&X[.f.S.:X&Xq.h.h.h.:XI.N.A.N.%Xv ,.S.p ",
"q ;.<.:.<.U.b.:.U.F b :.u.U.D.N.N.N.N.I.&XV.4.D.4.a M.V.U.D.M.N.N.N.N.$X$XF.s.$X:.` $XP.F.a.N.%X%XN.N.B.N.U.U.N.N.U.V.C.z :.U.z ",
"7 ;.<.n.U.J.<.<.4.a b ,.C.s.:.n.M.M.U.$XV.C.G.D.3.k 4.n.V.V.V.C.D.a.C.$XD.N.U.m.F b m.G.N.D.:X:XN.N.G.C.G.U.n.V.G.U.V.C.k ;.G.b ",
"6 ` ;.<.<.;.;.<.;.z k ,.m.;.;.n F :.3.3.3.3.,.<.` a :.4.n.b.n.4.4.n.n.3.s.3.u.3.b b :.<.s.C.D.<.3.m.<.3.n.4.n.4.n.4.s.:.k b <.p ",
"= f x x x ` n n b t a t a a k k p a a a t y y y s w p v b x x v b x b l v v b v k l v b b x b b v x v b x b b x b v b b p A A w ",
"@ * * 8 9 6 0 7 8 & $ 8 # 6 9 6 6 & 8 $ $ 1 @ $ $ w $ 6 8 8 6 # 7 7 6 # 6 # 7 6 7 # # & & 7 + 7 = & & & 7 & & & & 7 8 $ $ # $ w "
};
