/* XPM */
static char *_6ebc15018f64d3ae685b60e5ec9b0f5hClZCyvgiS2p9dwu[] = {
/* columns rows colors chars-per-pixel */
"64 64 256 2 ",
"   c #591900",
".  c #5A1B12",
"X  c #481F09",
"o  c #641C0B",
"O  c #621A03",
"+  c #661D14",
"@  c #771D02",
"#  c #4D2B04",
"$  c #5C2C00",
"%  c #572804",
"&  c #5A3302",
"*  c #593806",
"=  c #4F3011",
"-  c #652605",
";  c #762807",
":  c #673706",
">  c #753504",
",  c #632214",
"<  c #733318",
"1  c #53460E",
"2  c #724A13",
"3  c #69681E",
"4  c #73522B",
"5  c #757937",
"6  c #6F6D2F",
"7  c #5D6827",
"8  c #7D7647",
"9  c #3A3412",
"0  c #883708",
"q  c #8A3814",
"w  c #92360F",
"e  c #A53E0A",
"r  c #883B26",
"t  c #913D2D",
"y  c #944517",
"u  c #8F4C13",
"i  c #A8470B",
"p  c #A94A19",
"a  c #B34B18",
"s  c #AC5616",
"d  c #B55C13",
"f  c #B45C1B",
"g  c #BB5D1C",
"h  c #B65718",
"j  c #AF570D",
"k  c #926719",
"l  c #AE6819",
"z  c #BB621C",
"x  c #B96719",
"c  c #BD721D",
"v  c #BF781B",
"b  c #8D4426",
"n  c #954427",
"m  c #995629",
"M  c #905032",
"N  c #AA4C25",
"B  c #A55428",
"V  c #B45322",
"C  c #B55A23",
"Z  c #BB5C24",
"A  c #BB5829",
"S  c #A45535",
"D  c #B95A36",
"F  c #AD4D2B",
"G  c #996628",
"H  c #946C32",
"J  c #BB6626",
"K  c #BB7725",
"L  c #A56636",
"P  c #B96537",
"I  c #AF7334",
"U  c #C2691D",
"Y  c #C2761C",
"T  c #C45B28",
"R  c #C35E39",
"E  c #C36424",
"W  c #C46C23",
"Q  c #C4662B",
"!  c #C46B2A",
"~  c #CB6929",
"^  c #C27324",
"/  c #C4732C",
"(  c #CC742C",
")  c #C57C2B",
"_  c #CD7C2C",
"`  c #C77925",
"'  c #D3792E",
"]  c #C86735",
"[  c #D46A36",
"{  c #CC7C32",
"}  c #CB7737",
"|  c #D47C34",
" . c #DB7B35",
".. c #D57B3B",
"X. c #DB7C3C",
"o. c #D67438",
"O. c #D16A2C",
"+. c #E37C3C",
"@. c #EA7D3C",
"#. c #E37A38",
"$. c #E17536",
"%. c #A85940",
"&. c #B4754B",
"*. c #89774B",
"=. c #DD7C44",
"-. c #D97845",
";. c #CB744A",
":. c #E37D43",
">. c #E77A44",
",. c #6C8536",
"<. c #778943",
"1. c #6E9144",
"2. c #8E8B39",
"3. c #B78533",
"4. c #C8822B",
"5. c #C98636",
"6. c #D38234",
"7. c #DD8434",
"8. c #DD823C",
"9. c #DC8C3C",
"0. c #D68838",
"q. c #DB963A",
"w. c #CE8E30",
"e. c #E38336",
"r. c #E4833C",
"t. c #EA833D",
"y. c #E48B3C",
"u. c #E78B3A",
"i. c #E9983C",
"p. c #EE9038",
"a. c #F8A53D",
"s. c #ECA53C",
"d. c #D5A13E",
"f. c #8F9051",
"g. c #BA884C",
"h. c #DB8C43",
"j. c #DA8648",
"k. c #DB9343",
"l. c #D89447",
"z. c #DA8953",
"x. c #D7975A",
"c. c #C9904F",
"v. c #E48443",
"b. c #EA8443",
"n. c #E48B43",
"m. c #EA8D44",
"M. c #E8884A",
"N. c #F28B43",
"B. c #F28648",
"V. c #E39344",
"C. c #EC9344",
"Z. c #EC944A",
"A. c #E69A47",
"S. c #F49C44",
"D. c #F59C4C",
"F. c #FA9D4D",
"G. c #F59848",
"H. c #E38A54",
"J. c #E89956",
"K. c #F59C52",
"L. c #FC9B54",
"P. c #FD9D5D",
"I. c #F49454",
"U. c #F18C55",
"Y. c #DDAC5B",
"T. c #D7A84E",
"R. c #ECA44C",
"E. c #EDAC4B",
"W. c #E9A747",
"Q. c #F4A444",
"!. c #FAA544",
"~. c #F4AA45",
"^. c #FCA945",
"/. c #F4A34B",
"(. c #FCA44B",
"). c #F4AC4C",
"_. c #FCAB4C",
"`. c #F7B64C",
"'. c #E4AB54",
"]. c #E9A957",
"[. c #FDA453",
"{. c #F2AB53",
"}. c #FCAC54",
"|. c #FEA35C",
" X c #FCAC5A",
".X c #F4A758",
"XX c #ECB958",
"oX c #F4B355",
"OX c #FBB353",
"+X c #FCBB55",
"@X c #FDB45B",
"#X c #FCBB5B",
"$X c #F4BA58",
"%X c #EAB34D",
"&X c #D99968",
"*X c #D09A68",
"=X c #EC9C65",
"-X c #D8A86A",
";X c #D7AC70",
":X c #EAA568",
">X c #FEA263",
",X c #FCAA65",
"<X c #E8B462",
"1X c #FDB463",
"2X c #FEBD63",
"3X c #FFBD6B",
"4X c #F5B767",
"5X c #E9AA73",
"6X c #F8A972",
"7X c #E9B877",
"8X c #FABD75",
"9X c #F6C44D",
"0X c #ECC656",
"qX c #F4C454",
"wX c #FBC454",
"eX c #FBCA55",
"rX c #F4C45A",
"tX c #FDC45B",
"yX c #F4CA5A",
"uX c #FDCA5C",
"iX c #F5CA54",
"pX c #F4D056",
"aX c #EDC862",
"sX c #FEC463",
"dX c #FECB63",
"fX c #FEC46B",
"gX c #F4CB6A",
"hX c #FDCC6B",
"jX c #F4C865",
"kX c #FED36C",
"lX c #F9D668",
"zX c #FECC72",
"xX c #FCC776",
"cX c #FED474",
"vX c #FEDB74",
"bX c #FFD57C",
"nX c #FFDB7B",
"mX c #F3DB7E",
"MX c #EDD16E",
"NX c #FEE278",
"BX c #F8E06F",
"VX c #E8BB8A",
"CX c #D8B38D",
"ZX c #EBC78A",
"AX c #F2CC8A",
"SX c #F6C888",
"DX c #FFDC81",
"FX c #FCD689",
"GX c #F6CB96",
"HX c #FCD596",
"JX c #EACA92",
"KX c #FFE383",
"LX c #FEE38C",
"PX c #FFE98A",
"IX c #FFE295",
"UX c #FFDFA7",
/* pixels */
"% : : > > > : : > : > > > : : - - > : : : : : : * * * 1 * : < - : : : * * * 1 1 1 1 * * : < $ : : & : * * : : & : * * : : : < . ",
"M &X5X=X=X:X:X:X:X:X:X:X:X:X:XL ;.5X8X8X7X7X7XZXZXAXAXAXGXHXVX&.SXAXAXAXAXAXAXAXHXAXAXGXGXHXc.c.HXAXHXGXAXSX*XI SXAXGXAX8XVX;X% ",
"0 =XH.M.B.v.m.v.H.H.M.b.v.M.,XJ h.4XoXE.oX$XoX$XzXfXaXjXhXbX4X3.bXcXgXhXcXkXhXkXjXkXcXbXzXLXl.T.vXgXgXgXcXbX].K bXzXzXgXsXXXx.& ",
"0 H.X.+.N.#.t.t.+.v.b.t.@.+.P.~ 9.{.).).~.~.`.+X+XtXuXwXrXdXoXK dXyXrXqXwXwXrXrXuXuXuXrXsXKXw.q.lXuXuXrXdXdXA.4.tXuXdXsXdXtXY.& ",
"0 z.M.t.t.e.u.e.Z.b.t. .t.N.F.~  .n.Z./.W.).#XsXsXwX+XwXtX2X/.^ #XrXdXdXdXuXuXuXuXtXdXtXdXvXw.q.dXtXdXdXdXoX9.6.kX#XsXfXsXfX7X& ",
"0 } =.+.#.t.m.r.=.X.r.#.L.L.m.g o.=.n.V.9./.@X}.@XW.W.#XfX Xn.^ {.#X2X#X@X#XsX#XsX#XfXfX2X{.^ q.hX#X2X#XoXV.` _ /.2XfX2X#XfX7X$ ",
"q D A T T T T Z ] T Q T [ o.( g V ] ..8._ 7.y.e.y.y.0.6.0.0...! 0.9.9.9.7.y.y.y.y.7.6.9.V.h./ | 9.0.9.9.9.| U U r.n.h.h.Z.h.&.- ",
"; D V a A V g h N i a Z Q Q ( / } ../ ) ) _ ( ( z ( ` ) 5.5.5.5.4.4.4.4.6.' _ ( W 6.{ { ) 5.) 5.4.4.5.) 5.6.( | | { { K J } &.- ",
"y 6X>X>XP.,X|.,XH.s /.3XfXfXfXfXfXbXcXfXhXDXDX3Xx .XbXnXnXnXbXbXnXKXKXnXDXbXbXl.5.LXDXbXDXPXKXKXKXnXnXnXnXnXDXDXbXbXLX<XK FXZX& ",
"0 z.j.r.8.8.y..XJ.s /.OX).).E.`.%X$XrXrXrX$X2XfX4.$XdXrXyXjXdXjXlXlXlXaXjXhXnXT.3.DXgXgXgXcXvXnXvXkXyX0XaXaXgXjXjXgXDXgX3.xX;X& ",
"w j.X.b.b.e. .m.|.j S._._._.).~.s.`.eXwXwXdXfX2XK $XhXrXuXuXuXtXuXjXdXsXsXsXhXd.d.nXjXdXdXdXsXsXtXtXtXuXlXlXsXtXdXrXhXfXK fX5X- ",
"w M.X.+.@.t.+.r.>Xj F.(.(.!._._.`.`.`.9XwXwXsX2XK oXdXuXuXwXwXtXtXrXtXtXtXtXdXq.w.kXrXtXtXtXsXtXwXwXtXrXyXyXtXtXuXtXsXoXY fX5X- ",
"0 H.b.t.@.b.b.b.U.i N.(. X[.(.!.`.`.wXwXuXtX#XoXY R.#XwXuXuXwXuXuXrXtXtXsXtX#Xq.Y tXtXdXdXtXdXuXdXuXtXtXuXuXtXtXtXdXfXR.Y 1X5X$ ",
"w -.=.:.:.+.:.:.] i  .N.L.F.F.S.C.).OX`.$X2X.X9.c V.).oX#X$X#XtX$X$X#X#X@X@X/.6.` {.@X#X#X#X$X$XOX+X@X#XrX#X@X@X+X@X1Xk.` ].-X: ",
"; S p p V p V V N p ] ~ E E W ' [ ~ W / { { ( ( E | | { _ _ 6.6.6.6._ { | | 8.{ / | { { { 6.| 9.| 6.4.{ ) _ |  . .' { / J j.&.% ",
"; P P P ] J J J ] } 8. .8.8.( J O.=.M.h.9.k.k.h.h.V.h.9.9.h.j.J 0.9.k.k.h.h.k.l.A.h.l.l.k.h.! / h.k.k.k.k.9.{ ! 8.h.k.k.h.x.&.% ",
"y 6X>XP.P.P.|.[.3X2X2X2XsX2XfX/ A.fX3XbXcXvXbXbXvXnXnXnXvXKXxXI bXnXnXnXvXnXnXnXnXvXvXvXKXLX5.J.bXvXvXnXvXKX:Xj.FXbXNXvXvXLXZX= ",
"0 H.8.e.t.t.e.7.i.~.Q.~.~.Q.3X) q.OXR.oXqXiX0X0XqXqXrXrXrXhX4X3.hXyXqXqXyXyXyXyXrXyXyX0XlXKXl.l.kX0X0XpX0XvX<X5.DXaX0X0XiXjX;X& ",
"0 z.8.e.t.r.e.u.Q._.Q.^.^.Q.1XK q.`.R.@XuXeXqXqXeXwXwXwXwXdX4XK dXeXwXeXeXeXeXuXwXuXeX9XyXvXw.q.dXpXiXiXiXkX{.w.cXrXiXpXeXkX;X& ",
"0 z.n.r.r.r.e.u.Q._.Q.(._._. Xx 0.OX_.OXwX9XqXdX9XwXwX+X9XuX{.K tXwXeXeXeXwXeXuXeXeXwXeXeXdX4.i.uXuXqX9XeXuXA.4.fXuXeX9X9XlX;X& ",
"0 z.n.r.r.t.e.e.(.(._.(.!.(.D.x _ [. XOXtXtX+X+XtX+XtX+X+X+XS.` tXuXwX9XwXeXuXrXuXwXqXuXuXrX4.A.dXwXtXuXwXtXR.^ #XwXeX9XwXdX;X& ",
"0 ;.v.v.:.b.b.m.[.F.[.[.(.(.r.g ' Z.m.C.OXsXsX2XfX}.OX#XtXOXy.W oXtXtXtXtXdXsXsX`.+XtXtX$XA.^ 6.sXtXtXsXtX#XA.^ W.oXtXwXuXhX-X& ",
"q ;.-.-.$.$.#.B.I.B.U.I.G.F.b.E E  .+.b.D. X X.X|.Z.G.(.}.}.n.( Z./.}.OX}.}. X XC.D.@X{.R.0.~ 8./. X X.X@X/.8.( V.R.{.)._.,X&X: ",
"@ N e a a i e i E E T U d d U s i g ~ E x x K / { ( { ^ c ^ J z / ^ c c K K ^ / | ( ^ x ) l f ! ^ ^ ^ K c c ! J / c c ` _ / &.  ",
"> z.} | X.o.n.9._ i 0.V.q.i.V.k.V.A.0.9.R.W.'.].l.K ].'.'.T.'.].'.'.'.'.'.'.'.].K l.].'.Y.].].].'.'.].].%X'.].].].].R.q.c x.*X% ",
"u =XJ.K.K.K. X3X@Xc {.2X#X#XtXfX2X2X@X#XdXdXcXKX].5.zXcXvXvXDXLXDXnXcXvXvXnXDXLX5.4XbXvXvXnXbXDXvXvXbXnXvXvXbXbXcXnXbXoX^ SXZX# ",
"0 j.v.X. .#.7.K.3Xx /.}.~.Q.R.R.~.Q.Q.~.~.W.`.kXR.4.sXrXyXqXyXhXdXrXqXqXqXrXdXvX4.2XkXrXrXrX$XrXqXrXrXrXqXqXrXrXdX$XtXOXv 3X;X# ",
"0 H.M.t.t.N.r.D.|.d D.[.Q.^._._.^.!.^.a.s.s.~.dXV.4.dXwX9XqXrXrXrXwX9XwXiXiXuXdXY OXsX`.qXuXwXuXeXuXuXuXiXeXuXuXuXuXtXOXY fX-X# ",
"0 H.X.t.@.t.e.r.[.z F.[.!.!.!.Q.!.!._.^.!.^.~.@X6.` fX+XwXeXtXtXrXuXeXeXeXuXtX#X4.).sXuXiXiXwXwXwXwXtXtXeXeXeXrXqXdX#Xi.Y 3X7X# ",
"w H.v.b.@.@.r.r.M.h b.L.(._.(.(.C.G.(.(.(._././.( ~ @X@XtXtX+X#X#XtXtXwXwXtX#XoX^ V.2XdXrXrXtXtXtXtXsXtXtXwXtXtXtXOX/.y.W ,X7X& ",
"q ;.] [ [ o.o.o.-.Z o.M.N.N.t.N.v.b.b.N.m.m.C.b.T Q Z.S./././.)./././.Q.R./.K.I.O.+.K.[.R.R./././.D.L.F./.Q././. XD.I.#.O.U.&X% ",
"; y y e e i e i C h Z g d z d z z J h g d d x d p V W U x c ^ c W U c c c c K W J ~ ^ W c c ^ ^ U U U U Y Y ^ ^ U W O.~ T -.L % ",
"0 x.j.v.r.m.6.9.R.{.{.W.).E.k.l ) {.{.{.oX{.E.{.,X.X{.E.oX#X'.K '.$X#XXXXXXXrXXX<XfX4XXX#X2XK l.sXXXXX$X#X2Xl.K R.{.}. X X,X&X% ",
"y J.H.Z.D.[.D.}.@XoX+X+X@XfXzXK A.fX#X#X#X#X#X#X@X2X#X$X$XfX3X3.vXkXkXkXkXlXlXkXcXcXkXlXkXDXc.Y.nXvXkXlXdXvX<X5.bXfXOXOXOX4X-X& ",
"0 j.=. .#.N.e.y.S.S.(._./.}.xXx y.}././.~.~.Q.Q.S.}.Q.Q.Q.@X1Xl dXqXXXrXrXqXrXtXsX#X$X$XrXnX5.c.hX0XrXqXqXhX].) fX).s.Q.).].x.% ",
"w H.M.:.@.t.#. .C.[.(.(.(.F.,XW y.[.(.(.!.!.a.!.}.i.u.!._.}.K.J #XrXrXrXwXtXrXrXtXsXtX+XwXvX5.5.hXqXqXqX+XfXA.l @X~.~.^.).{.x.$ ",
"0 -.M.b.@.t.t.r.C. X(.(.(.[.C.z ' D.(.(.!.a.a.^.!.!.i.u.a. Xn.j W.`.tXtXwXwXeXqXrXtXtXwXwXdXK w.dX$XrXuXwXsXV.c ).~._.!./. Xx.% ",
"0 ;.=.:.#.+.v.v.r.K.[.(.F. Xm.d W m.D.[.(.^.!.(.S.G.S.S.(.[...z 9.W.OX#X+X+X#XtX2X#X$X+X+X).x 9.fX#XtX@XR.C.( x /.Q.(.F.[.,X&X- ",
"q D ] ] O.O.] Q Q X.b.r.+.r. .g g [ j.n.y.y.7.e. .r.n.n.n.M.o.Z 8.y.m.C.C.u.n.C.I.m.m.C.C.r.E o.J.V.A.V.7.X.] Q r.e.b.:.M.H.;.O ",
"; n e i i i i e p g g h z d z f h J z f d x x z J C f z d f J f z x d d d x z d f h g d d U f f f s l l d U h h g d g g Z A S O ",
"q =XJ.I.I.Z.I.K.0.j k.@X@X@X#X@X1X XR.E.#X#X@X1X{ J .X1X@X2X1X3X2X2X2X2X2XsX#X].l J.1X#X#XoX3X4X2X2X2X#X@X@X1X1X@X@X1X8.f 6X5X$ ",
"0 J.j.M.m.y.Z..XJ.j  X@X}.).).`.).OX).).`.).oX3XA.{  X).OX`.OXoX#XfX#XoXoX$XoXfXK 4X2X%X%X`.fXzX#X#XoXoX`.OX}.OXOX). XR.l 6X&X$ ",
"0 z.=.b.b.@.+.M.>Xi Z.[.(.(.(.Q.Q.^.!.Q.Q.Q./.1Xn.(  XS.!.a.^.Q._._.Q.).s.~.~.OXx  X@XW.^.Q.Q.}._.).~.Q.Q.Q.(./.~.~.[.n.j ,Xx.$ ",
"w H.:.:.@.@.+.v.U.i X.|.G.(._.!.!.!.a.a.^.^.(.[. .( [.(.a.a.^.^.!.!.!._.!._._./.U  X XS.^.^.S.!.Q.Q.Q.Q.!.!.!.!.a.^.F.W i >Xx.- ",
"0 j.v.+.+.t.b.v.X.p ( K.F.(.!.Q.!.!.!.^.^.^.(.[.' W C.S.^.^.a.!.Q._.!.i.^.^.!.(.U G.[.Q.a.^.).(.!.!.(.).^.!.(.(.^.!.F.' i P.x.- ",
"q ;.=.:.+.:.:.=.[ p ] o.I.[.D.(.(.(.(.(.Q.Q./.[.o.E n.m.!.S.(.(.(./.S.u.!.S.F.m.h X.L.(.Q.Q././.(.(.(.(.(.(.(.(.Q.i.m.X.i H.x.$ ",
"; P D A A T T R F w A V T O. .8.X.X...o.' | o.o.] A o.o. . . .X.X.o. .'  . .X.~ V ] -.X.|  . .X.o....... . . .o. .o.[ R w ;.&.  ",
"- m p V V a p V N F N V a h E h Z Z Q ! x x W ! ] J Q ~ z ! f s g ! ! E W z z ! J ] Q E W E f C E J J J ! E z f J J s N N B S - ",
"u 6X.XK.P.>XL.L.|.>XL.|.[.K.,XE h.3XxXfXfXsXsXfXfXfX2XfXfX3XJ.J oX2XfXfXfXfXfXfXfXfXfXfXzX2XJ J.xX2XfXfX3X3X9.x .X.X].].].].*X% ",
"u :X6.7.#.8.y.y.8.r.m.e.7.n.|.E Z. X.XR.).`.~.~.~.E.~.~.).@X:XK 2XoXE.E.E.E.E.E.E.E.E.E.tXbX5.l.2XW.%XaXfXzX$X%XzXfXfXfXXXjX-X% ",
"0 z.M.b.b.M.K 4.j.v.b.@.b.o.M.g ( V.Z.S./.Q.~.~.).).^.Q.Q.}.Z.s }.)./.)._.~.).)././.}.Q.R.3X/ { OXW.aXvXvXvXvXNXbXDXY.<XKXFXVX& ",
"0 z.:.v.j.I k k } H.:.+.B.M.v.i ( r.e.e.p.S.(.(.(.(.!.Q._. Xv.s [.(.(.(.!.Q.!._.}./.(.(.Q.@Xz / @XtXvXNXvXlXlXlXzX3.2 & c.IXVX% ",
"0 ;.v.0.g.H 2.2.L z.=.:.:.:.v.a O.b.b.+.t.N.N.N.L.I.t.e.G.G.] i F.(.(.!.!.^.^.!.(.Q.!._.^._.d ( [.tXlXpXBXvXlXNXY.2 G x.: -XGX% ",
"; &.z.c.&.5 ,.2.H &.L P =.:.-.p h X.>.>.+.o.X.=.:.-.O.O.X.o.A a m.G.[.(.(.(.(.D.K.[.(.(.S.C.s Q Z.fXNXlXNXlXlXNXMXG HX;X: g.GX# ",
"- S m L H 6 f.5 4 *.f.H B N V w a A V p C V V V A F C C f s w w Q ~ ] Q E E Q ! ] ] Q Q ~ ] p p C '.NXBXNXmXLXFXFXIXHXG 2 -XJX# ",
"r M 2 4 4 8 f.<.1 1 <.6 I P Q Q A Q A A Q A A P N y C J J J P D A Z C Z E E C h p p C Z C Q R Q C x.NXBXmXFXHX;Xk I L g.k HXVX# ",
"t &.2.f.7 6 ,.<.7 5 5 3 <X.X>XP.P.P.P.>X|.P.>X6X-.V I.L.|.|.P.,XL.,X,X|.D.|.1XK.i n.|.|.[.[.>X>X|.3XvXvXFX7XL m u I ;.m G UXVX# ",
"q M 3 ,.1 6 1.,.<.5 6 H 5.7.#.b.@.+.#.+.e.+.#.B.[ a M.e.e.e.#.#. .m.G.y.7.7.C.|.j n.D.y.7.7.8.8.' 1XvXDXg.u > m &X;.m > u g.VX# ",
"q H 3 <.1.1.1.1.7 2 G j.M.b.@.@.b.b.@.b.t.e.b.U.] Z B.r.e.t.b.b.b.r.r.e.r.r.b.>Xh U.I.#.r.t.v.n.6.{.PX3.k M m 2 b ; m m G M CX= ",
"< &.4 3 7 1.1.,.4 b A o.$.>.B.B.@.b.b.t.t.e.v.M.T A B.r.#.t.t.:.b.:.b.r.t.e.+.U.p -.B.+.t.t.:.b.7.E.PXT.2 c.HX;XL < L &.G HXVX= ",
"< &.&.L 4 5 <.5 M n A T O.[ -.-.+.b.B.b.t.m.b.v.A A :.v.t.t.b.:.B.B.>.B.t.t.b.#.a ] >.b.t.@.>.b.7.E.DXMXY.IXFX-XI m m xXY.FXZX# ",
"< %.D S M 6 8 f.2 n F R ;.] D D ] o.-.} } ..} ] F F ;.-.-.X.-.-.-.-.o.-.o.X.=.] N D -.=.o.-.>.=./ ].IXFXDXxXIXG 2 L 7XHXFXFXGX# ",
", r r r 4 8 8 *.4 4 r t n b r M r n n b b b b t M t S S S m S S n S S S m m S S M M S S B S S S S c.GXJXAXZXAX*XH ;XGXJXJXGXCX= ",
", . o , X = = 9 = . , o o o , . + + o o o O o + + . + o O O + o o O O   - -   , . , ,   O - O o o , * # * : & 1 2 * * * * * = # "
};