/* XPM */
static char *fc76fdbae98a42e0a4103af2d77bccc8[] = {
/* columns rows colors chars-per-pixel */
"64 64 251 2 ",
"   c #4A1707",
".  c #541B0D",
"X  c #5C1C0B",
"o  c #591804",
"O  c #4C1E1A",
"+  c #4B1B13",
"@  c #541D13",
"#  c #5B1E13",
"$  c #531E1B",
"%  c #5A1D19",
"&  c #531516",
"*  c #641C05",
"=  c #631E0C",
"-  c #6A1F0C",
";  c #681D06",
":  c #621E16",
">  c #5C210F",
",  c #572409",
"<  c #4C221C",
"1  c #47231A",
"2  c #542216",
"3  c #5B2215",
"4  c #54221C",
"5  c #5C241C",
"6  c #58291B",
"7  c #4F210A",
"8  c #6B2707",
"9  c #65220D",
"0  c #6B220C",
"q  c #64290C",
"w  c #6B2A0A",
"e  c #6A2807",
"r  c #73250E",
"t  c #762A0D",
"y  c #642313",
"u  c #6B2412",
"i  c #642A14",
"p  c #6C2915",
"a  c #63241B",
"s  c #6C251C",
"d  c #642A1C",
"f  c #6C2B1B",
"g  c #732513",
"h  c #742B14",
"j  c #7A2C15",
"k  c #732C1B",
"l  c #7B2D1B",
"z  c #752618",
"x  c #6D321E",
"c  c #6D3518",
"v  c #763115",
"b  c #793115",
"n  c #74321B",
"m  c #7B331C",
"M  c #783918",
"N  c #7F310D",
"B  c #4B1E25",
"V  c #581E23",
"C  c #4D2324",
"Z  c #492326",
"A  c #542223",
"S  c #5C2521",
"D  c #5D2A22",
"F  c #58262A",
"G  c #5E312B",
"H  c #642621",
"J  c #632B23",
"K  c #6C2D23",
"L  c #682C27",
"P  c #732D22",
"I  c #772F27",
"U  c #6D3224",
"Y  c #63322B",
"T  c #6E332A",
"R  c #663328",
"E  c #743323",
"W  c #7B3423",
"Q  c #7C3924",
"!  c #73332B",
"~  c #7B352A",
"^  c #7C3A2B",
"/  c #743829",
"(  c #6A3633",
")  c #733B33",
"_  c #7C3C32",
"`  c #7C3D38",
"'  c #612E33",
"]  c #7B431D",
"[  c #7A4327",
"{  c #7E4338",
"}  c #832D18",
"|  c #83341D",
" . c #853A1C",
".. c #8B3C1D",
"X. c #883719",
"o. c #933A1E",
"O. c #973B1D",
"+. c #85340F",
"@. c #833424",
"#. c #8A3623",
"$. c #833A24",
"%. c #8A3C24",
"&. c #83362A",
"*. c #843B2C",
"=. c #8B3C2C",
"-. c #8A372B",
";. c #943C24",
":. c #9A3D23",
">. c #933D2C",
",. c #9A3D2C",
"<. c #903725",
"1. c #833C32",
"2. c #8C3E32",
"3. c #843F3A",
"4. c #933E32",
"5. c #993E34",
"6. c #924519",
"7. c #8D4224",
"8. c #85412D",
"9. c #8C422C",
"0. c #874222",
"q. c #954224",
"w. c #9C4224",
"e. c #94432C",
"r. c #9B432B",
"t. c #954A2C",
"y. c #9B4B2D",
"u. c #9E4827",
"i. c #844233",
"p. c #8C4333",
"a. c #8E4A35",
"s. c #85443B",
"d. c #8B453A",
"f. c #8C4A3C",
"g. c #854C3A",
"h. c #944433",
"j. c #9A4533",
"k. c #954A35",
"l. c #9C4C34",
"z. c #93443A",
"x. c #944B3B",
"c. c #9B4C3A",
"v. c #9D463B",
"b. c #8D513D",
"n. c #9D5135",
"m. c #9C523B",
"M. c #955239",
"N. c #A24225",
"B. c #A2452B",
"V. c #A44A2D",
"C. c #AA4C2D",
"Z. c #A7472A",
"A. c #B14F2E",
"S. c #AD522E",
"D. c #A45723",
"F. c #B2542F",
"G. c #A24631",
"H. c #A44D33",
"J. c #AA4D33",
"K. c #A24E3B",
"L. c #AC4F39",
"P. c #B24F33",
"I. c #A45135",
"U. c #AC5235",
"Y. c #AD5934",
"T. c #A4533C",
"R. c #AC543B",
"E. c #A5593C",
"W. c #AD5A3C",
"Q. c #A45932",
"!. c #B35434",
"~. c #B95536",
"^. c #B35A35",
"/. c #B3553B",
"(. c #B9563A",
"). c #B35A3C",
"_. c #B9593B",
"`. c #956537",
"'. c #AC613E",
"]. c #B5623E",
"[. c #BA643D",
"{. c #B16E35",
"}. c #A24F1B",
"|. c #C05C3C",
" X c #C66924",
".X c #C36A39",
"XX c #CB7636",
"oX c #E07F30",
"OX c #884C43",
"+X c #984C43",
"@X c #8C5544",
"#X c #955342",
"$X c #9C5442",
"%X c #9A5849",
"&X c #975650",
"*X c #A45443",
"=X c #AC5542",
"-X c #A45B44",
";X c #AD5C42",
":X c #A35B4B",
">X c #AD5D4B",
",X c #A75548",
"<X c #B45641",
"1X c #B35B42",
"2X c #B25E49",
"3X c #B85A40",
"4X c #A45D51",
"5X c #A54E44",
"6X c #9E6248",
"7X c #AD6345",
"8X c #AC624C",
"9X c #AE694C",
"0X c #A26046",
"qX c #B36444",
"wX c #BA6544",
"eX c #B66845",
"rX c #BB6A44",
"tX c #B3634B",
"yX c #BA654B",
"uX c #B56A4C",
"iX c #BC6B4C",
"pX c #B67649",
"aX c #AB6753",
"sX c #B56C53",
"dX c #BA6C53",
"fX c #B96A55",
"gX c #BD7153",
"hX c #B87258",
"jX c #BE7B61",
"kX c #C26C4C",
"lX c #C06B46",
"zX c #C9734A",
"xX c #C46D52",
"cX c #C37354",
"vX c #C6775B",
"bX c #C57C63",
"nX c #D2873E",
"mX c #E58C37",
"MX c #E8983B",
"NX c #EBA33F",
"BX c #D68850",
"VX c #F69842",
"CX c #E89552",
"ZX c #E78F45",
"AX c #FBBC57",
"SX c #F8B34C",
"DX c #CE8769",
"FX c #E19D6C",
"GX c #EDB16B",
"HX c #FAC273",
"JX c #FFC16D",
/* pixels */
"Z 1 + 7     4 4 4 3 s u * y a % @ i X 9 u q 9 w 8 8 8 8 8 8 e e e q , q 8 8 e e 0 0 w 8 8 p 2 4 i , i 2 < < F V F F Z C A A B A ",
"1 6 7 ] `.`.q . @ K #Xc.$X#X4X1.f i.8.p.m.sXsXuXuXuXeXuXuXeX7X7X9XsXhX9XE.E.7XsXfXsXtX7XtXsXOX) hXhXb.. 4 F $ & & & 2 + 4 A B C ",
"+   pXGXHXHXFXn.. a x.9.p.p.$XW W ,X-XT.T.qX1XR.).R.R.R.W.).1X1X).R.R.R.!./.).W.R.B.;.q.U.tXi.d -XE.$X  C < 4 K k.e. .0 . A Z B ",
"@ [ GXAXAXAXHXBX> H p.8.$.&.p.l l T.=XT.H.J.H.J.J.U.!.J.B.w.u.B.N.Z.U./.(.~./.U.<X/.U.U./.1X^ y $.%.^ @ 2 6 6X7X.X.X.XrXQ . A B ",
"  6XJXSXAXAXAXGXx T 8.$.P k @.; g <.<.;.:.w.w.Z.Z.J././.!.U.J.J.N.J./.(.P.P.U.H.H.L.R.J.u.e.f f j.j.*.y o E..X X X X X.XuXE + A ",
"4 n BXSXMXNXSX{.X S i.Q p.x.:X&.=.;X=X=XR.1X).1X/././.U.U.U.J.G./.L.L.L.!.(.R.H.e.=.;.;.;.e.f f >X2Xx.o t [.XXoXmXVXZXzXq.8.f y ",
"A . Q.nXZXnXBX0.. S i.i.#X#X%X@.W m.*XT.T.*XT.T.T.T.T.T.T.*XT.K.R.R.=XT.J.!.R.T.,X*XT.T.;X>X^ f p.>Xp.l zX.XZXVXVXMXBXzX8 0XhXh ",
"A @ * +.D.D.N o 3 4 a f f E I z u Q m m m m r r h m | | m j g 0 l } | | } X.| l W ~ W j j $.i y *.m u g kXBX XmXmXCX}.+.M p E.t ",
"< R s 0 r r z s J @ J s y u l l l v m v j v j h j h j m j h j j j j b b b b b v y i Q j v m E n h | u f tXI.6.XXBXCXBXX.q i -Xj ",
"6 OX4X*X*X,X+X1.T 5 1.%XaX8X=X2XgXdXdXuXuXuXuXuXdXuXdXdXdXdXdXsXgXeX7X7X7X7XuXjX^ g.aXuXtX7X8XaXgX7X%Xd %XX ] pXFXFXDXhX> @X6Xf ",
"7 / *.-.>.4.4.2.s.a 1.+Xc.l.U.C.V.y.H.U.W.W.U.U.U.V.V.U.U.R.).W.R.I.U.R.).!.1XyX$.m e.:.O.O.;.e.E.8X{ + A 4 2 3 c [ E   D 2 O 4 ",
"6 x m =.h.-.=.p.s.a z @.j.H.C.C.C.V.V.U.U.V.w.O.w.w.B.J.U.U.U.J.J.U.U.C.Z.Z.B.y.g 8.2X!.A._./.B.o.e.E + O 4 @ . .   . @ @ $ 4 @ ",
"> ^ 9.9.h.p.=.W ! : c.yX=XT.1XR.).U.U.U.H.w.:.w.V.J./.3X)./.!.J.;.y.J.J.V.u.o.} = f l.J.!.!.!.U.Y.V.I.e.m.8.k.c.k.e.x.a.#Xx.$Xu ",
"3 { a.8.*.p.a.i.OXK l #.j.e.>.j.T.R.R.R.1XR.1X1X1X/./.R.H.J.U.R.1X=X<X/.R.R.=X>X^ f *.r.J.V.H.1XU./././.;XqX2XR.1X2X-X-X$Xm.*Xg ",
"S ) 1.1.` _ _ i.{ 3 m 7.9.p.d.z.h.j.j.c.K.T.K.K.*XT.l.e.>.j.T.T.*X*XK.T.T.T.K.+XJ ) 4X$Xl.T.T.c.=X=X=Xc.T.k.K.T.K.c.M.a.p.&.1.s ",
"$ H a y s a y y 3 o t t b k P P k k h h z l l j g h j j g h j h g j j r r j j u # 3 W h h h k P g l g h j m r j j g n c k ~ K @ ",
"@ U E m @.@.W W m 0.0.0. . .p.u = m $.%.7.9.} X.......%.7... ... . .%.7.7.....%.8.$.%. . .8.x d 9.0. .t  .0.%.%... .0.$.u f f.3 ",
"d b.$Xc.c.K.T.m.uXiXeXrXcXcXbXM.n $XsXhXsXiX;XW.cXxXiXrXiXeXqX'.eXqXuXiXgXiXiXiXdXuXeXeXcXDX@XU uXeXiXqXgXgXiXiXcXgXiXeX-X0XaXE ",
". _ d.*.@.W @.@.k.T.W.U.y.e.x.E $.>X>XE.T.W.).).U.U.U.U.R.W.R.U.U.U.R.I.I.V.B.y.k.l.H.r.;.9.K K E.U.R.I.R.R.I.U.U.H.;.#.%.8.p.9 ",
": ~ &.&.&.W @.=.*X=XR.U.H.e.x.f z e.| ;.r.r.V.B.!.!././././.R.R././.R.U.U.Z.B.r.e.r.B.w.o.#.f P 1X!././.).)./.)./.J.B.H.l.e.h.u ",
": ~ 2.=.=.&.*.p.K.G.B.J./.1X:X$.r ;.o.w.V.B.B.N.C.A.P.!./.!.U.).U.!.)./._.(.(.).2X1X/./._.yXd.l J.Z.C.!./.(.!.!._.P././.J.H.c.r ",
": 3.z.p.p.*.*.*.c.j.H.B.r.%.*.= %.tXtX2XR.R./.).)./././.R.V.r.y.J.U.R.R./././.R.T.T.H.J.J.T.~ k R.J.U./.U.)././.).U.1XR.T.;X>Xl ",
"$ ) ` ^ _ ^ _ ` %Xx.c.c.c.x.b./ f x.#Xx.x.m.j.c.c.c.c.m.m.x.a.k.c.m.m.c.j.k.h.p.g.i.p.k.c.a.K K -Xl.c.c.h.c.j.c.j.k.m.m.#X#XOXd ",
"$ 5 # # y = # f f y h 0 0 0 k y = u 9 9 u h 0 h 0 u 0 0 p u = o 0 0 p p r r 0 y f d f 0 0 k . . u 0 0 p * u 0 g h 0 0 9 f y d 3 ",
"@ { *.$.9.e.=.p k 9 t 7.l.l.c.c.n.l.n.l.7.7.y.n.l.l.y.y.t.l.n.n.I.y.......y.n.m.n n k.y.y.n.M.#Xk.y.y.y.y.l.y.y.I.y.t.n.h.k.f.i ",
"3 g.M.c.K.j.c.h.#Xh t.gXiXiXxXxXdXiXiXiXyXwXyXiXiXiXiXiXiXuXuXyXwXrXqX].).rXiXcX9.x.dXiXrXwXuXsXiXiXiXiXiXuXiXiXqXiXuXqXuXhX9Xn ",
"2 / ^ =.4.=.2.p.*.p n $.7.e.<.>.;.q.w.V.R.R.R.R.R.U.H.J.H.I.U.U.I.R.R./.S.Y.R.;Xu z 9.;.w.w.q.e.y.V.I.U.R.R.R.R.U.).R.I.>XT.k.0 ",
"S ) ~ *.h.4.h.d.f.X ^ $Xc.K.l.H.R.R.U.U.R.J.w.w.B.:.;.o.;.w.B.V./././.).!.^.U.T.l W j.r.Z.Z.V.y.V.J.U./.R.U.V.B.w.w.w.o.%.j m 0 ",
"4 { x.h.e.h.2.2.4XP z.>XT.=X=X1XR./.R.U./.U.V.V.J.J.J.J.U.!./.!./.)././.!._./.=X@.p.2X1X~.!./.1X)././././.U.J.V.C.J./.r.e.e.m.h ",
"$ ` d.&.@.@.~ ~ i.f k l #.l.K.;X;X;X=X=X=X=X=X=XR.R.R.1X1X1XR.R.R.1XR.R.C.U.R.>Xf ~ *X=X/.!.U.R./.U.J.H.R.R.1X1X/.).2X=X;X8X8Xh ",
"F ( ! K E / T ) &XJ ~ x.8.*.p.8.*.*.*.*.2.d.x.x.x.x.x.x.k.k.k.k.k.c.k.j.=.e.d.f.R R s.d.j.l.k.z.x.h.p.=.p.z.j.x.j.h.p.x.f.f.s.a ",
"O 4 3 X y y # d f # = u 0 0 * o = X X o o = u = * 9 0 0 0 0 0 0 0 0 * 0 0 r y y 4 2 K y ; * y f * 0 0 0 u u 0 - - u 9 u y y d 3 ",
"3 g.k.e.j.l.e.j.m.qXqXQ.W.E.tX%.9 m.8X;XE.t.y.W.W.W.W.;X;X;XW.W.W.W.W.W.W.].;X;X0X-Xn.E.W.9X[ x 7X'.'.'.W.W.W.;XW.W.t.t.9.8.:Xp ",
"3 g.x.l.H.H.H.T.iX].].[.rXiXbX9.m -XqXeXwX).).lXrXwX].].].eXrXrXwXwXwXqX].[.wXwXqXuX).Y.W.vX@Xx uX[.].[.rXeXwX).).rX).Y.;X7X8Xh ",
"# ` 1.*.=.>.=.j.e.I.W.Y.I.%.k.$.m T.l.R.R.U.J.U.U.U.R.R.R.R.U.J.U.U.J.y.w.O.;.;.| | ;.q.+.j y E W.!.J.U.!.)./.!.B.!.J.V.1X2XK.r ",
"& ! E W &.=.=.=.j.=X=XH.l.| E 9 l j.e.l.B.U.C.U.U.J.w.;.;.w.J././.).).R.U.J.J.J.=XH.J.J.U.;Xp.E R./._.)./.!.!.!.!.!.J.V.L.K.j.g ",
"H s.d.d.p.h.*.m @.#.;.w.H.8X8XW e.eX).).S.!.S.C.O.w.V.C.C.S.C.S.!.!.!.!.~._._.).R.R.).U.!.wX9.* ..w.J.U././.).)._.U.B.H.H.j.c.g ",
"% ` d.p.p.d.p.1.=.c.K.j.e.k.8.= m E.E.W.U.).).R.H.I.W.1XW.W.).).).W.R.U.U./.R.R.;XT.R.U.).;X8.f I.I.I.T.R.T.T.I.R.R.H.T.*X-X8Xk ",
"A ( T / E ! ! ! ! f.z.=.k.a.^ ! U i.i.i.8.=.9.*.8.8.1.*.*.*.=.p.=.*.*.*.-.=.p.i.s.s.d.*.*.p.! T x.e.=.=.=.9.p.p.p.9.9.p.d.s.s.3 ",
"O 4 @ y y y : y a y = - * 0 p y y f 9 9 u * u 0 9 9 y y y y u 0 9 y u y 0 0 u y a 3 p 9 0 u . # 0 - - - - - - - 0 0 u 9 y i 5 3 ",
"2 OX#Xk.l.T.m.$Xp.o $.7XuXuXqXuXqXqXqXeXeXeXeXeXqXqXqXuXuXuXeXqXeXeXuXeX[.wXeXuXv a.dXW.W.Q.m.m.I.H.y.I.T.I.I.R.R.R.E.7X8X8XaXf ",
"3 i.e.e.G.,.>.h.8.k m.tXW.)./.).).).Y.Y.^.^.^.^.].).Y.U.U.^.).].].Y.).].^.^.].vX9.t.W.V.^.^.E.E.).).).W.W.R.W.).R.).U.W.uXsX9Xh ",
"@ E @.#.B.,.>.z.f.y u h j ;.B.B.r.r.w.B.U.!././.J.H.r.;.:.B.J.U./.R.R.U.Z.Z.w.e.h m l.r.O.o.;.l.;.y.I.Y.W.W.W.R.U.W.H.q.%.j m * ",
"5 i.p.>.,.5.4.2.s.s ~ x.T.1X<X<X/./.!.J.!.P.Z.B.:.w.H.R.<X<X/.!.J.R./.R.!.!.V.e.u x.vX1XZ.!.).R.U.U.R.U.J.V.B.B.o.o.o.;.e.%.9.h ",
"# i.x.>.,.,.-.I K # ~ $X;X=XU.U.U.!.!.!.(.!.!.!.J.U.U.R.U.J.N.:.w.w.V.!.!.F.U.wXl =.2X).~.|._.U.!.C.N.:.:.:.Z.!./.P.!.!.1XyX2Xg ",
"5 _ d.9.>.=.d.3.s.H a P *.j.T.I.R.R.R.U.U.U.U.R.=XR.T.T.T.T.T.T.T.T.W.R.U.!.R.>XW E j.R./.!.J.=X1XR.K.T.R.K.R.<XR.H.R.T.K.*X*Xz ",
"A Y K f f f T ( ( D J J f E Q Q Q ^ $.W $.Q W ^ ~ ~ ^ ^ ^ ~ k k ^ ^ ^ ~ @.=.~ K $ Y { ~ | =.*.*.~ ~ ^ i.i.*.^ ~ *.k *.i.i._ ) % ",
"$ J d y f f K 5 J 5 H K f f p i y f f f k k k k k f f f f f u p k p f k h z s P L J K f z k : f k k f p p f k k k k k y y 5 L 6 ",
"i f.$XT.T.T.T.T.T.*X*XT.*X-X8X$.0 8XgXdXiXiXxXiXkXkXkXkXkXkXwXyXlXkXxXiXkXxXxXkXdXvXyXtXyXvXf.E fXcXiXW.qXkXkXkXkXiXcXyXe.M.hXE ",
"9 8.c.e.;.o.X.o.>.r.r.,.#.@.p.k k.8XE.W.qX).).^.!.F.!.F.!.^.!.^.S.S.!.)./.!.A.C.V.U.J.C.J.;XE y l.S.^.!.^.^.F.S.!.U.U.R.I.E.-X* ",
"# ! W @.#.#.#.%.e.=.4.>.-.W ~ X * v j  .e.;.q.u.).^.^.U.).).U.Y.^.Y.W.).U.N.O.w.q.;.o.w.o.l > E qX!.^.^.Y.Y.!.^.!.V.o.;.H.T.m.0 ",
"a _ 1.*.2.4.=.h.p.2.4.z.+Xx.d.f u $.*.%.9.e.H.R.R.J.U.U.R.).J.I.V.V.H.R./.U.U.W.Y.;X).W.R.-X^ k R.V.U.!.!.!.!.!.!./././.=Xl.k.l ",
"3 i.+Xh.4.-.-.=.&.*.2.&.&.~ ~ f W p.k.e.e.e.j.B.R.L.L.J.U.U.B.w.u.u.H.R.).).).Y.E.T.H.y.J.;X*.h J.Z.!.!.!.~.~.!.(.(.(.!.H.r.h.r ",
"4 { s.1.=.*.*.*.i.d.d.~ P s f # f Q 8.p.p.=.=.=.4.,.4.j.K.T.K.H.H.T.*X*XT.I.y...8.$.j.T.T.e.k h =XR.R.J.V.U.U.U.J.J.R.=X>X,Xx.- ",
"O D 5 a K f d a U K T L T T L 5 5 d d a a a H P s s s y y y = = z z P P W W n n / U ~ k l W d . f h v h h v k v l m ~ P K U T 6 ",
"2 R K P ~ P f f 3 . # 3 K ! T U U U E K ! ~ I H I ! _ ~ ~ ~ / ^ W W P s s k W Q d d ~ W @.$.~ ^ Q Q Q W Q Q n W E P f d ! T L 4 ",
"> #X:X$X=XK.h.k.*.p W d.$X:X-X-X=XT.=X=X,X=X5Xv.v.c.*X>XtXtX8XtXtX2XK.j.c.T.7XbXQ #XbXdXxXvXgXhXgXdXdXdXuXtX=XT.=XT.j.c.,X:X:Xf ",
"o Q =.=.r.e.%.| m * z @.-.=.#.#.;.;.;.,.,.,.5.>.j.>.>.>.e.e.e.e.;.e.e.>.y.r.t.E.m v k.e.V.r.q.e.r.r.e.e.r.r.>.>.>.j.>.j.c.h.h.u ",
"y E &.>.5.j.h.*.~ = z &.@.=.>.e.e.>.e.e.<.-.#.@.@.| | @.$.$.#.%.e.H.j.j.l.r.q.t.p f 8.} X.X.| #.-.>.e.e.j.j.j.j.>.j.=.-.=.k k = ",
"y ^ h.5.5.4.z.d.d.s ~ x.z.z.j.h.>.>.e.j.e.>.-.@.$.$.%.9.e.e.9.9.e.j.j.e.j.l.y.k.E s.4Xk.r.y.k.k.h.j.j.j.j.e.=.%.@.@.l l *.&.*.k ",
"y d.x.j.4.4.2.p.f.y s &.W @.-.>.h.e.e.j.j.j.j.9.c.k.j.j.j.e.e.e.e.e.h.e.r.l.y.9.y ! d.z.j.e.e.h.j.j.j.j.j.j.j.j.K.v.j.c.c.c.x.k ",
". ^ 1.&.-.&.~ / / # T OXz.z.2.p.d.*.*.*.*.*.i.*.p.*.=.=.2.=.=.=.*.*.*.&.&.$.$.E 3 S ! 1.2.=.*.i.W W W &.=.2.p.2.2.&.2.2.1.i.s.y ",
"6 Y T T I I T J G < Y ( T ! ! ! S 4 4 4 4 6 J D 5 5 J T ! ! ! ! T U T ! P ! ! T A F ' J H H a D J J J J J J 5 5 J J J J D D Y < ",
"< < 4 5 % % S < C 1 C O + @ @ $ < B C C < < < O 4 $ $ $ V $ V V 4 $ $ 5 % % 5 4 Z Z B B $ $ $ < < < O O < < < < O O O O < 1 < 1 "
};
